<svg width="512" height="512" viewBox="0 0 512 512" fill="none" xmlns="http://www.w3.org/2000/svg">
<path d="M456.198 255.997C491.018 320.895 464.71 379.649 397.563 397.556C379.649 464.71 320.895 491.011 255.997 456.198C191.098 491.017 132.345 464.71 114.437 397.563C47.2902 379.649 20.9826 320.895 55.8022 255.997C20.9826 191.098 47.2902 132.345 114.437 114.437C132.345 47.2901 191.098 20.9825 255.997 55.8021C320.895 20.9825 379.649 47.2901 397.556 114.437C464.71 132.345 491.011 191.098 456.198 255.997Z" fill="#DFD9F0"/>
<path d="M238.34 152.32C237.82 162.72 237.387 171.907 237.04 179.88C236.867 187.853 236.693 195.48 236.52 202.76C236.347 210.04 236.173 217.58 236 225.38C236 233.007 236 241.76 236 251.64H237.04L283.32 152.06H331.68L280.72 255.8L334.8 365H286.18L237.04 262.04H236C236 268.453 236 275.733 236 283.88C236 292.027 236 300.607 236 309.62C236.173 318.46 236.26 327.647 236.26 337.18C236.433 346.54 236.52 355.813 236.52 365H190.76C190.933 357.373 191.107 349.487 191.28 341.34C191.453 333.02 191.627 324.093 191.8 314.56C191.973 304.853 192.06 294.453 192.06 283.36C192.06 272.093 192.06 259.7 192.06 246.18C192.06 234.393 192.06 224.427 192.06 216.28C192.06 207.96 191.973 200.42 191.8 193.66C191.8 186.9 191.8 180.4 191.8 174.16C191.8 167.747 191.8 160.467 191.8 152.32H238.34Z" fill="#6750A4"/>
</svg>
