<svg width="255" height="303" viewBox="0 0 255 303" fill="none" xmlns="http://www.w3.org/2000/svg">
<path d="M60.3597 135.535C64.3578 135.535 68.1922 133.947 71.0193 131.12C73.8463 128.293 75.4346 124.459 75.4346 120.46C75.4346 116.462 73.8463 112.628 71.0193 109.801C68.1922 106.974 64.3578 105.386 60.3597 105.386C56.3616 105.386 52.5273 106.974 49.7002 109.801C46.8731 112.628 45.2849 116.462 45.2849 120.46C45.2849 124.459 46.8731 128.293 49.7002 131.12C52.5273 133.947 56.3616 135.535 60.3597 135.535V135.535ZM135.734 165.655C135.734 169.653 134.146 173.487 131.319 176.314C128.492 179.141 124.657 180.73 120.659 180.73C116.661 180.73 112.827 179.141 110 176.314C107.173 173.487 105.584 169.653 105.584 165.655C105.584 161.657 107.173 157.822 110 154.995C112.827 152.168 116.661 150.58 120.659 150.58C124.657 150.58 128.492 152.168 131.319 154.995C134.146 157.822 135.734 161.657 135.734 165.655V165.655ZM60.3597 225.924C64.3578 225.924 68.1922 224.336 71.0193 221.509C73.8463 218.682 75.4346 214.847 75.4346 210.849C75.4346 206.851 73.8463 203.017 71.0193 200.19C68.1922 197.363 64.3578 195.774 60.3597 195.774C56.3616 195.774 52.5273 197.363 49.7002 200.19C46.8731 203.017 45.2849 206.851 45.2849 210.849C45.2849 214.847 46.8731 218.682 49.7002 221.509C52.5273 224.336 56.3616 225.924 60.3597 225.924V225.924ZM0.0603077 40.1115C0.0603077 17.5444 18.6024 -2.17346 42.5714 0.193297C120.62 7.92912 192.928 44.6587 245.208 103.124C261.338 121.109 256.318 147.806 237.987 161.087C214.138 178.393 178.592 204.156 158.346 218.869C158.316 225.457 158.316 229.738 158.331 235.331V244.798C158.333 248.654 157.49 252.464 155.861 255.959C154.231 259.454 151.856 262.549 148.901 265.027C145.946 267.505 142.484 269.305 138.758 270.3C135.033 271.295 131.134 271.461 127.337 270.787C124.262 283.239 113.288 293.806 98.0318 293.806C87.4794 293.806 79.0073 288.756 73.7764 281.52L53.8022 295.947C31.3708 312.137 -0.0150694 296.113 5.42838e-06 268.42L0.0603077 40.1266V40.1115ZM40.3554 22.7001C31.1748 21.7956 22.6575 29.3782 22.6575 40.1115V47.9504C101.861 51.282 172.064 89.3912 218.404 147.354L224.721 142.771C233.434 136.44 234.55 125.088 228.369 118.199C179.859 63.9593 112.769 29.8872 40.3554 22.7151V22.7001ZM22.6123 268.42C22.6123 277.646 33.0742 282.998 40.5514 277.586L72.6307 254.461C74.3208 253.245 76.314 252.519 78.3903 252.364C80.4667 252.209 82.5456 252.63 84.3978 253.581C86.25 254.532 87.8037 255.976 88.8874 257.754C89.9711 259.532 90.5429 261.574 90.5396 263.657C90.5396 267.727 93.6902 271.194 98.0318 271.194C99.0258 271.204 100.012 271.016 100.933 270.641C101.853 270.266 102.69 269.712 103.395 269.01C104.099 268.309 104.657 267.474 105.035 266.555C105.414 265.636 105.605 264.651 105.599 263.657V244.783C105.599 241.784 106.791 238.908 108.911 236.788C111.031 234.668 113.907 233.477 116.906 233.477C119.904 233.477 122.78 234.668 124.9 236.788C127.02 238.908 128.212 241.784 128.212 244.783C128.212 246.893 129.885 248.552 131.95 248.552C132.95 248.552 133.908 248.154 134.615 247.448C135.322 246.741 135.719 245.782 135.719 244.783V235.406C135.704 228.321 135.689 223.226 135.794 212.96C135.808 211.194 136.235 209.457 137.042 207.886C137.848 206.315 139.011 204.955 140.437 203.915C154.035 194.026 178.064 176.599 200.073 160.65C178.58 133.911 151.642 112.052 121.051 96.5248C90.459 80.9976 56.9134 72.1579 22.6424 70.5929L22.6123 268.42V268.42Z" fill="currentColor"/>
</svg>
